<svg xmlns="http://www.w3.org/2000/svg" width="0" height="0" class="hidden">
    <symbol width="24" height="24" viewBox="0 0 24 24" fill="none" stroke="none" xmlns="http://www.w3.org/2000/svg" id="youtube">
        <path fill-rule="evenodd" clip-rule="evenodd" d="M6.99554 0C3.12955 0 -0.00445557 3.00865 -0.00445557 6.72V17.28C-0.00445557 20.9914 3.12955 24 6.99554 24H16.9955C20.8615 24 23.9955 20.9914 23.9955 17.28V6.72C23.9955 3.00865 20.8615 0 16.9955 0H6.99554Z" fill="#FC0017"/>
        <path fill-rule="evenodd" clip-rule="evenodd" d="M17 12L9 8V16L17 12Z" fill="white"/>
    </symbol>
    <symbol width="24" height="24" viewBox="0 0 24 24" fill="none" stroke="none" xmlns="http://www.w3.org/2000/svg" id="rutube">
        <rect x="-0.00445557" width="24" height="24" rx="6" fill="black"/>
        <path d="M14.7805 7H6V17H8.44391V13.7466H13.1268L15.2634 17H18L15.6439 13.7317C16.3756 13.6117 16.9024 13.3269 17.2244 12.8771C17.5463 12.4273 17.7073 11.7077 17.7073 10.7481V9.99853C17.7073 9.42879 17.6488 8.97903 17.5463 8.63417C17.4439 8.28935 17.2683 7.9895 17.0195 7.71964C16.7561 7.46477 16.4634 7.28486 16.1122 7.16491C15.761 7.05997 15.3219 7 14.7805 7ZM14.3854 11.5427H8.44391V9.20388H14.3854C14.722 9.20388 14.9561 9.26387 15.0732 9.36881C15.1902 9.47375 15.2634 9.66867 15.2634 9.95353V10.7931C15.2634 11.093 15.1902 11.2879 15.0732 11.3928C14.9561 11.4977 14.722 11.5427 14.3854 11.5427Z" fill="white"/>
        <path d="M18.5003 7C19.3283 7 20 6.32843 20 5.5C20 4.67157 19.3283 4 18.5003 4C17.6717 4 17 4.67157 17 5.5C17 6.32843 17.6717 7 18.5003 7Z" fill="#F41240"/>
    </symbol>
    <symbol width="24" height="24" viewBox="0 0 24 24" fill="none" stroke="none" xmlns="http://www.w3.org/2000/svg" id="vk">
        <path d="M-0.00439453 11.52C-0.00439453 6.0888 -0.00439453 3.3744 1.68281 1.6872C3.37001 0 6.08441 0 11.5156 0H12.4756C17.9068 0 20.6212 0 22.3084 1.6872C23.9956 3.3744 23.9956 6.0888 23.9956 11.52V12.48C23.9956 17.9112 23.9956 20.6256 22.3084 22.3128C20.6212 24 17.9068 24 12.4756 24H11.5156C6.08441 24 3.37001 24 1.68281 22.3128C-0.00439453 20.6256 -0.00439453 17.9112 -0.00439453 12.48V11.52Z" fill="#0077FF"/>
        <path d="M13.9948 0C9.56202 0.0144 7.20282 0.1632 5.68122 1.6848C3.99402 3.372 3.99402 6.0864 3.99402 11.5176V12.4776C3.99402 17.9088 3.99402 20.6232 5.68122 22.3104C7.20282 23.832 9.56202 23.9808 13.9948 23.9952C18.4276 23.9808 20.7868 23.832 22.3084 22.3104C23.9956 20.6232 23.9956 17.9088 23.9956 12.4776V11.5176C23.9956 6.0864 23.9956 3.372 22.3084 1.6848C20.7868 0.1656 18.4276 0.0168 13.9948 0Z" fill="#FF2B42"/>
        <path d="M16.93 9.86647C18.1444 10.5673 18.7492 10.9177 18.9532 11.3737C19.1308 11.7721 19.1308 12.2281 18.9532 12.6265C18.7492 13.0849 18.142 13.4329 16.93 14.1337L13.606 16.0537C12.3916 16.7545 11.7868 17.1049 11.2876 17.0521C10.8532 17.0065 10.4596 16.7785 10.2028 16.4257C9.90762 16.0201 9.90762 15.3193 9.90762 13.9201V10.0801C9.90762 8.67847 9.90762 7.97767 10.2028 7.57447C10.4596 7.22167 10.8532 6.99367 11.2876 6.94807C11.7844 6.89527 12.3916 7.24567 13.606 7.94647L16.93 9.86647Z" fill="white"/>
    </symbol>

</svg>