<svg width="11" height="7" viewBox="0 0 11 7" fill="none" xmlns="http://www.w3.org/2000/svg">
<path fill-rule="evenodd" clip-rule="evenodd" d="M3.45714 5.56841L1.24537 3.71618C0.99678 3.50801 0.595219 3.50801 0.346633 3.71618C0.0980479 3.92436 0.0980479 4.26064 0.346633 4.46882L3.01096 6.70003C3.25954 6.90821 3.66111 6.90821 3.90969 6.70003L10.6534 1.0526C10.902 0.844427 10.902 0.508143 10.6534 0.299967C10.4048 0.0917918 10.0032 0.0917918 9.75463 0.299967L3.45714 5.56841Z" fill="#666666"/>
<path fill-rule="evenodd" clip-rule="evenodd" d="M9.64543 0.194732C9.95556 -0.0649272 10.4525 -0.0649106 10.7626 0.194781C11.0791 0.459826 11.0791 0.892743 10.7626 1.15779L4.01895 6.80522C3.70883 7.06493 3.21182 7.06493 2.9017 6.80522L0.237371 4.574C-0.0791235 4.30896 -0.0791235 3.87604 0.237371 3.611C0.547492 3.35129 1.04451 3.35129 1.35463 3.611L3.45719 5.37177L9.64543 0.194732ZM10.5441 0.405153C10.3571 0.248511 10.0509 0.248511 9.8639 0.405153L3.45708 5.76505L1.1361 3.82137C0.949053 3.66473 0.642945 3.66473 0.455896 3.82137C0.275219 3.97267 0.275219 4.21233 0.455896 4.36363L3.12022 6.59485C3.30727 6.75149 3.61338 6.75149 3.80043 6.59485L10.5441 0.947416C10.7248 0.79611 10.7248 0.556459 10.5441 0.405153Z" fill="#666666"/>
</svg>
