<svg width="12" height="9" viewBox="0 0 12 9" fill="none" xmlns="http://www.w3.org/2000/svg">
<path fill-rule="evenodd" clip-rule="evenodd" d="M4.08675 6.65667L2.01572 4.72506C1.78296 4.50796 1.40695 4.50796 1.17418 4.72506C0.941418 4.94215 0.941418 5.29285 1.17418 5.50995L3.66896 7.83679C3.90173 8.05388 4.27774 8.05388 4.5105 7.83679L10.825 1.94732C11.0578 1.73023 11.0578 1.37953 10.825 1.16243C10.5923 0.945335 10.2163 0.945335 9.98349 1.16243L4.08675 6.65667Z" fill="white"/>
<path fill-rule="evenodd" clip-rule="evenodd" d="M9.88124 1.05269C10.1716 0.7819 10.637 0.781917 10.9273 1.05274C11.2237 1.32914 11.2237 1.78061 10.9273 2.05702L4.61281 7.94648C4.32243 8.21732 3.85704 8.21732 3.56665 7.94648L1.07187 5.61964C0.775521 5.34324 0.775521 4.89177 1.07187 4.61536C1.36226 4.34452 1.82765 4.34452 2.11803 4.61536L4.0868 6.4516L9.88124 1.05269ZM10.7227 1.27213C10.5476 1.10877 10.261 1.10877 10.0858 1.27213L4.0867 6.86173L1.91341 4.83475C1.73827 4.67139 1.45164 4.67139 1.27649 4.83475C1.10731 4.99254 1.10731 5.24246 1.27649 5.40025L3.77127 7.72709C3.94642 7.89045 4.23305 7.89045 4.40819 7.72709L10.7227 1.83763C10.8919 1.67984 10.8919 1.42992 10.7227 1.27213Z" fill="white"/>
</svg>
