<svg width="15" height="15" viewBox="0 0 15 15" fill="none" xmlns="http://www.w3.org/2000/svg">
<path d="M6.21765 11.9303C7.49617 11.9316 8.73788 11.5014 9.74187 10.7096L13.5311 14.5L14.5 13.5308L10.7108 9.74041C11.7816 8.37332 12.1731 6.59351 11.7744 4.90326C11.3759 3.21294 10.2306 1.79559 8.66193 1.05138C7.09325 0.307176 5.27145 0.316729 3.71076 1.07754C2.15007 1.83836 1.01978 3.26762 0.639095 4.96195C0.258407 6.65645 0.668587 8.43209 1.75372 9.78767C2.83888 11.1433 4.48152 11.9317 6.21761 11.9304L6.21765 11.9303ZM6.21765 1.87148C7.36929 1.87148 8.47388 2.32915 9.28817 3.1437C10.1025 3.95825 10.56 5.06305 10.56 6.215C10.56 7.36695 10.1025 8.47191 9.28817 9.28646C8.47388 10.101 7.36925 10.5587 6.21765 10.5587C5.06605 10.5587 3.96159 10.101 3.14729 9.28646C2.33299 8.47191 1.87546 7.36695 1.87546 6.215C1.87546 5.06305 2.33299 3.95825 3.14729 3.1437C3.96159 2.32915 5.06605 1.87148 6.21765 1.87148Z" fill="#666666"/>
</svg>
