<svg width="21" height="21" viewBox="0 0 21 21" fill="none" xmlns="http://www.w3.org/2000/svg">
<g clip-path="url(#clip0_394_66)">
<rect width="21" height="21" rx="3" fill="#E3E3E3"/>
<path d="M14.8333 4H6.16667C4.98485 4 4 4.98485 4 6.16667V14.8333C4 16.0152 4.98485 17 6.16667 17H14.8333C16.0152 17 17 16.0152 17 14.8333V6.16667C17 4.98485 16.0152 4 14.8333 4ZM6.16667 4.78788H14.8333C15.5818 4.78788 16.2121 5.41818 16.2121 6.16667V12.3515L14.4788 10.7758C14.2424 10.5394 13.8485 10.5394 13.5727 10.7758L11.5636 12.7061L8.49091 9.55455C8.37273 9.39697 8.17576 9.31818 7.97879 9.31818C7.78182 9.31818 7.58485 9.39697 7.46667 9.55455L4.78788 12.3121V6.16667C4.78788 5.41818 5.41818 4.78788 6.16667 4.78788ZM14.8333 16.2121H6.16667C5.41818 16.2121 4.78788 15.5818 4.78788 14.8333V13.4545L7.97879 10.1455L11.1303 13.4152C11.3273 13.6515 11.7212 13.6515 11.9182 13.4152L14.0061 11.4455L16.1727 13.4545V14.8333C16.2121 15.5818 15.5818 16.2121 14.8333 16.2121ZM12.6667 8.92424C13.4152 8.92424 14.0455 8.29394 14.0455 7.54545C14.0455 6.79697 13.4152 6.16667 12.6667 6.16667C11.9182 6.16667 11.2879 6.79697 11.2879 7.54545C11.2879 8.29394 11.9182 8.92424 12.6667 8.92424ZM12.6667 6.95455C12.9818 6.95455 13.2576 7.2303 13.2576 7.54545C13.2576 7.86061 12.9818 8.13636 12.6667 8.13636C12.3515 8.13636 12.0758 7.86061 12.0758 7.54545C12.0758 7.2303 12.3515 6.95455 12.6667 6.95455Z" fill="#505456"/>
</g>
<defs>
<clipPath id="clip0_394_66">
<rect width="21" height="21" fill="white"/>
</clipPath>
</defs>
</svg>
